<?xml version="1.0" encoding="utf-8"?>
<!-- Generator: Adobe Illustrator 25.0.1, SVG Export Plug-In . SVG Version: 6.00 Build 0)  -->
<svg version="1.1" id="Layer_1" xmlns="http://www.w3.org/2000/svg" xmlns:xlink="http://www.w3.org/1999/xlink" x="0px" y="0px"
	 viewBox="0 0 200 160" style="enable-background:new 0 0 200 160;" xml:space="preserve">
<style type="text/css">
	.st0{stroke:#FFFFFF;stroke-miterlimit:10;}
	.st1{opacity:7.000000e-02;}
	.st2{opacity:0.14;}
</style>
<path class="st0" d="M100,80L100,80L100,80L100,80z"/>
<path class="st0" d="M100,80L100,80C100,80,100,80,100,80C100,80,100,80,100,80z"/>
<path class="st0" d="M100,80L100,80c0.2-0.4,0.5-0.8,0.7-1.2c3.1-5.7,4.9-12.2,4.9-19.2c0-7.5-2.1-14.5-5.6-20.4
	c-3.6,6-5.6,13-5.6,20.4c0,6.9,1.8,13.5,4.9,19.2C99.5,79.2,99.8,79.6,100,80C100,80,100,80,100,80z"/>
<path class="st0" d="M100,80C100,80,100,80,100,80C100,80,100,80,100,80L100,80L100,80z"/>
<path class="st0" d="M134.3,60.5c-14.1,0-26.5,7.3-33.6,18.3c-0.2,0.4-0.5,0.7-0.7,1.2C114.6,80,127.3,72.2,134.3,60.5z"/>
<path class="st0" d="M100,80C100,80.1,100,80.1,100,80c0.2,0.5,0.4,0.9,0.7,1.3c7.1,11.1,19.5,18.4,33.7,18.4c0,0,0,0,0.1,0
	C127.5,87.9,114.7,80,100,80z"/>
<path class="st0" d="M100,80C100,80,100,80,100,80L100,80C100,80,100,80,100,80L100,80z"/>
<path class="st0" d="M100,80c0.2-0.4,0.5-0.7,0.7-1.2C100.5,79.2,100.2,79.6,100,80C100,80,100,80,100,80z"/>
<path class="st0" d="M100,80C100,80.1,100,80.1,100,80C100,80,100,80,100,80C100,80,100,80,100,80L100,80z"/>
<g class="st1">
	<path class="st0" d="M100,39.2c7-11.7,19.7-19.5,34.4-19.5c0,0,0,0,0.1,0C127.5,7.9,114.7,0,100,0C85.4,0,72.6,7.9,65.6,19.7
		c0,0,0,0,0.1,0C80.3,19.7,93,27.6,100,39.2z"/>
	<path class="st0" d="M100,121c-7,11.7-19.7,19.5-34.3,19.5c7,11.7,19.7,19.5,34.3,19.5s27.4-7.8,34.3-19.5
		C119.7,140.5,107,132.7,100,121z"/>
	<path class="st0" d="M134.3,60.5L134.3,60.5c14.6,0,27.4,7.8,34.4,19.6c3.6-6,5.6-13,5.6-20.4c0-22.1-17.8-39.9-39.9-40
		C138,25.7,140,32.6,140,40C140,47.5,137.9,54.5,134.3,60.5z"/>
	<path class="st0" d="M65.6,60.5C65.6,60.5,65.6,60.5,65.6,60.5C62,54.5,60,47.5,60,40c0-7.4,2-14.4,5.6-20.3
		c-22.1,0-39.9,17.9-39.9,40c0,7.5,2,14.5,5.6,20.4C38.2,68.4,51,60.5,65.6,60.5z"/>
	<path class="st0" d="M134.4,99.6c3.5,5.9,5.6,12.9,5.6,20.3c0,7.5-2.1,14.5-5.7,20.5h0c22.1,0,40-17.9,40-40c0-7.5-2-14.5-5.6-20.4
		C161.8,91.8,149,99.6,134.4,99.6z"/>
	<path class="st0" d="M65.5,99.6c-14.6,0-27.3-7.9-34.3-19.6c-3.6,6-5.6,13-5.6,20.4c0,22.1,17.9,40,40,40h0c-3.6-6-5.7-13-5.7-20.5
		C60,112.6,62,105.6,65.5,99.6z"/>
</g>
<g class="st2">
	<path class="st0" d="M100,39.2c3.6,6,5.6,13,5.6,20.4c0,6.9-1.8,13.5-4.9,19.2c7.1-11,19.5-18.3,33.6-18.3c3.6-6,5.7-13,5.7-20.5
		c0-7.4-2-14.4-5.6-20.3c0,0,0,0-0.1,0C119.7,19.7,107,27.6,100,39.2z"/>
	<path class="st0" d="M65.6,60.5c14.1,0,26.5,7.3,33.6,18.4c-3.1-5.7-4.9-12.2-4.9-19.2c0-7.5,2.1-14.5,5.6-20.4
		c-7-11.7-19.7-19.5-34.4-19.5c0,0,0,0-0.1,0C62,25.7,59.9,32.6,59.9,40C60,47.5,62,54.5,65.6,60.5z"/>
	<path class="st0" d="M134.4,99.6C134.4,99.6,134.4,99.6,134.4,99.6c-14.2,0-26.6-7.3-33.8-18.4c3.1,5.7,4.9,12.2,4.9,19.2
		c0,7.5-2.1,14.5-5.6,20.4c7,11.7,19.7,19.5,34.3,19.5c3.6-6,5.7-13,5.7-20.5C140,112.6,137.9,105.6,134.4,99.6z"/>
	<path class="st0" d="M134.4,60.5C134.3,60.5,134.3,60.5,134.4,60.5c-7,11.6-19.7,19.5-34.3,19.5l0,0c14.6,0,27.4,7.9,34.4,19.7
		c14.6,0,27.3-7.9,34.3-19.6C161.8,68.4,149,60.5,134.4,60.5z"/>
	<path class="st0" d="M100,121c-3.6-6-5.6-13-5.6-20.4c0-6.9,1.8-13.5,4.9-19.2c-7.1,11-19.5,18.3-33.6,18.3c0,0,0,0-0.1,0
		c-3.5,5.9-5.6,12.9-5.6,20.3c0,7.5,2.1,14.5,5.7,20.5C80.3,140.5,93,132.7,100,121z"/>
	<path class="st0" d="M65.5,99.6C72.5,87.9,85.3,80,99.9,80l0,0c-14.6,0-27.3-7.8-34.3-19.5h0c-14.6,0-27.4,7.8-34.4,19.6
		C38.2,91.8,50.9,99.6,65.5,99.6z"/>
</g>
<path class="st0" d="M65.6,60.5C72.6,72.2,85.3,80,99.9,80c-0.2-0.4-0.5-0.7-0.7-1.2C92.2,67.8,79.8,60.5,65.6,60.5z"/>
<path class="st0" d="M99.9,80c-14.6,0-27.4,7.9-34.4,19.7c0,0,0,0,0.1,0c14.1,0,26.5-7.3,33.6-18.3C99.5,80.9,99.7,80.5,99.9,80
	C100,80.1,99.9,80,99.9,80z"/>
<path class="st0" d="M100,80C99.9,80,99.9,80,100,80L100,80C99.9,80,100,80,100,80L100,80z"/>
<path class="st0" d="M99.3,78.9c0.2,0.4,0.4,0.7,0.7,1.2c0,0,0,0,0.1,0C99.8,79.6,99.5,79.2,99.3,78.9z"/>
<path class="st0" d="M100,80L100,80C100,80,99.9,80,100,80C100,80,100,80.1,100,80C100,80.1,100,80.1,100,80z"/>
<path class="st0" d="M99.3,81.3c-3.1,5.7-4.9,12.2-4.9,19.2c0,7.5,2.1,14.5,5.6,20.4c3.6-6,5.6-13,5.6-20.4c0-6.9-1.8-13.5-4.9-19.2
	c-0.2-0.4-0.5-0.7-0.7-1.2C99.8,80.5,99.5,80.9,99.3,81.3z"/>
<path class="st0" d="M100,80.1c0.2,0.4,0.5,0.8,0.7,1.2C100.5,80.9,100.3,80.5,100,80.1C100,80.1,100,80.1,100,80.1z"/>
<path class="st0" d="M100,80.1c-0.2,0.4-0.5,0.8-0.7,1.2C99.5,80.9,99.8,80.5,100,80.1C100,80.1,100,80.1,100,80.1z"/>
<path class="st0" d="M100,80.1C100,80.1,100,80.1,100,80.1C100,80.1,100,80.1,100,80.1C100,80.1,100,80.1,100,80.1
	C100,80.1,100,80.1,100,80.1z"/>
</svg>
